<svg xmlns="http://www.w3.org/2000/svg" width="200" height="50"><g style="line-height:125%"><path d="M93.102 21.1c-.03-2.002-.621-3.41-1.774-4.225-1.152-.815-2.688-1.208-4.606-1.18H80.8v18.502h2.86v-7.521h3.377c1.88.018 3.355-.411 4.427-1.287 1.072-.876 1.618-2.305 1.638-4.29zm-2.918 0c-.014 1.291-.323 2.183-.926 2.673-.604.491-1.42.725-2.45.701h-3.147v-6.577h3.004c1.01-.038 1.843.153 2.5.572.656.42.996 1.296 1.019 2.63zm23.419 13.097l-6.98-18.502h-2.518l-7.524 18.502h3.004l1.945-5.233h7.095l1.831 5.233zm-5.693-7.378h-5.579l2.89-7.807zm22.708-5.719c-.03-2.002-.621-3.41-1.774-4.225-1.152-.815-2.688-1.208-4.606-1.18h-5.922v18.502h2.861v-7.521h3.376c1.88.018 3.356-.411 4.427-1.287 1.072-.876 1.618-2.305 1.638-4.29zm-2.918 0c-.014 1.291-.323 2.183-.926 2.673-.604.491-1.42.725-2.45.701h-3.147v-6.577h3.004c1.01-.038 1.843.153 2.5.572.656.42.996 1.296 1.019 2.63zm19.128 13.097v-2.202h-8.01v-6.263h7.152V23.53h-7.153v-5.633h7.754v-2.202h-10.615v18.502zm19.771 0l-6.037-8.064c1.833-.22 3.118-.824 3.856-1.809.737-.985 1.093-2.146 1.065-3.482-.07-2.016-.717-3.388-1.942-4.117-1.224-.73-2.608-1.073-4.152-1.03h-6.35v18.502h2.86v-7.979h1.345l5.893 7.979zm-4.034-13.355c.01.92-.218 1.675-.687 2.263-.468.588-1.24.892-2.317.912H155.9v-6.12h3.633c1.003.007 1.759.265 2.268.776.509.51.764 1.233.765 2.17z" style="-inkscape-font-specification:Colaborate-Regular" font-weight="400" font-size="93.706" font-family="Colaborate-Regular" letter-spacing="3.604" word-spacing="0" fill="#fff"/></g><g transform="matrix(.1593 0 0 .15922 100.8 -37.012)"><circle cx="-368.571" cy="392.362" r="146.977" fill="#fff" stroke="#4199d5" stroke-width="9.877" stroke-linecap="square" stroke-linejoin="round"/><g fill-rule="evenodd"><path d="M-383.77 478.065c-24.826-19.945-39.795-51.807-39.251-83.76.154-13.084 2.833-26.136 8.92-37.412 6.088-11.275 15.766-20.694 27.498-25.26 12.951-5.027 28.332-3.78 40.172 3.577 5.957 3.633 11.055 8.73 14.667 14.749 3.611 6.018 5.734 12.965 6.051 20.022.497 13.336-5.642 26.744-15.7 35.9-10.052 9.15-23.737 14.13-37.536 14.517-16.104.433-32.452-5.406-44.203-16.474-11.748-11.067-18.635-27.374-17.69-43.542.474-8.981 3.28-17.848 7.948-25.625 4.668-7.775 11.174-14.454 18.779-19.514 15.271-10.021 34.613-13.238 52.735-10.11 24.13 4.204 46.125 19.666 58.266 41.065-11.936-21.507-33.845-37.278-58.144-41.747-18.218-3.38-37.889-.41-53.61 9.628-7.892 4.97-14.762 11.657-19.795 19.585-5.033 7.928-8.21 17.099-8.946 26.537-1.232 17.017 5.766 34.32 18.063 46.229 12.294 11.907 29.531 18.35 46.679 18.127 14.667-.174 29.525-5.223 40.69-15.06 11.16-9.831 18.325-24.548 18.008-39.674-.113-7.996-2.27-15.966-6.193-22.986-3.923-7.02-9.593-13.065-16.361-17.485-13.61-8.751-31.364-10.488-46.58-4.85-13.784 5.094-24.993 15.759-32.082 28.373-7.09 12.614-10.238 27.05-10.647 41.243-.833 34.727 15.14 69.477 42.156 91.491z" fill="#4199d5" stroke="#4199d5" stroke-width="3.454"/><path d="M-249.394 351.755l-44.661 9.61-9.328-19.503zm-54.438-9.611l-8.762 14.982 14.698-2.262zm-.551-1.978l-8.68-13.934 63.669 25.24z" fill="#a5ed5e"/></g><path d="M-432.1 398.833c2.507 4.002 4.927 8.401 10 10.69l-.573-5.14c-3.086-4.082-4.99-5.27-7.005-8.3-.516-.827-2.334-2.913-2.334-2.913-.677 1.888-.084 3.776-.087 5.663z" fill="#4199d5" fill-rule="evenodd"/></g></svg>